<svg preserveAspectRatio="none" width="100%" height="100%" overflow="visible" style="display: block;" viewBox="0 0 14 14" fill="none" xmlns="http://www.w3.org/2000/svg">
<g id="hugeicons:body-part-muscle" clip-path="url(#clip0_185_321)">
<path id="Vector" d="M1.17717 11.8446C1.83575 12.7867 4.70108 13.5258 6.055 11.7629C7.51917 12.4629 9.93358 12.2459 11.9 11.1493C12.173 10.9976 12.4314 10.8051 12.5901 10.5344C12.9477 9.92483 12.9558 9.079 12.3037 7.83125C11.2157 5.11642 9.25983 2.73292 8.47 1.7745C8.30783 1.62692 7.27358 1.41692 6.64242 1.2145C6.36358 1.12875 5.845 1.07158 5.22492 1.88942C4.93033 2.27675 3.59392 3.22933 5.28908 3.86925C5.55217 3.93633 5.74525 4.05942 6.944 3.84067C7.09975 3.81383 7.48942 3.84067 7.76417 4.3225L8.33817 5.14325C8.39185 5.21928 8.42573 5.3075 8.43675 5.39992C8.53708 6.27433 8.53358 7.36867 9.02125 7.92342C8.26875 7.37858 6.30058 6.73225 4.81775 8.57208M1.16783 7.54833C1.83536 6.95336 2.68639 6.60472 3.57949 6.56036C4.47258 6.51601 5.35397 6.7786 6.07717 7.3045" stroke="var(--stroke-0, black)" stroke-width="0.875" stroke-linecap="round" stroke-linejoin="round"/>
</g>
<defs>
<clipPath id="clip0_185_321">
<rect width="14" height="14" fill="white"/>
</clipPath>
</defs>
</svg>
