<svg preserveAspectRatio="none" width="100%" height="100%" overflow="visible" style="display: block;" viewBox="0 0 70 70" fill="none" xmlns="http://www.w3.org/2000/svg">
<g id="Group">
<g id="Vector">
</g>
<path id="Vector_2" d="M30.3958 42.5H18.2917C13.7056 42.5 9.30743 44.3218 6.06461 47.5646C2.8218 50.8074 1 55.2056 1 59.7917V63.25H30.5687M45.9583 16.5625C45.9583 20.6899 44.3187 24.6483 41.4002 27.5668C38.4816 30.4854 34.5233 32.125 30.3958 32.125C26.2684 32.125 22.31 30.4854 19.3915 27.5668C16.473 24.6483 14.8333 20.6899 14.8333 16.5625C14.8333 12.4351 16.473 8.47669 19.3915 5.55815C22.31 2.63962 26.2684 1 30.3958 1C34.5233 1 38.4816 2.63962 41.4002 5.55815C44.3187 8.47669 45.9583 12.4351 45.9583 16.5625ZM44.2292 40.7708H68.4375V56.7968C68.4373 57.9461 68.1508 59.0772 67.6037 60.088C67.0567 61.0988 66.2664 61.9573 65.3042 62.586L56.3333 68.4444L47.3624 62.586C46.4003 61.9573 45.61 61.0988 45.0629 60.088C44.5159 59.0772 44.2293 57.9461 44.2292 56.7968V40.7708Z" stroke="var(--stroke-0, black)" stroke-width="2" stroke-linecap="square"/>
</g>
</svg>
