<svg preserveAspectRatio="none" width="100%" height="100%" overflow="visible" style="display: block;" viewBox="0 0 14 14" fill="none" xmlns="http://www.w3.org/2000/svg">
<g id="Group">
<path id="Vector" d="M1 5.66667C1.455 3.44067 3.14083 1.65917 5.32017 1.0525C5.50333 1.00175 5.59433 0.976083 5.64392 1.03033C5.6935 1.08517 5.65675 1.175 5.58442 1.35583L5.08333 2.45833M8 1C10.226 1.455 12.0075 3.14083 12.6142 5.32017C12.6649 5.50333 12.6906 5.59433 12.6363 5.64392C12.5815 5.6935 12.4917 5.65675 12.3108 5.58442L11.2083 5.08333M12.6667 8C12.2117 10.226 10.5258 12.0075 8.3465 12.6142C8.16333 12.6649 8.07233 12.6906 8.02275 12.6363C7.97317 12.5815 8.00992 12.4917 8.08225 12.3108L8.58333 11.2083M5.66667 12.6667C3.44067 12.2117 1.65917 10.5258 1.0525 8.3465C1.00175 8.16333 0.976083 8.07233 1.03033 8.02275C1.08517 7.97317 1.175 8.00992 1.35583 8.08225L2.45833 8.58333" stroke="var(--stroke-0, black)" stroke-width="0.875" stroke-linecap="round"/>
<path id="Vector_2" d="M4.85758 6.63792L6.89867 4.01758C7.0585 3.81283 7.35775 3.94058 7.35775 4.21358V6.24125C7.35775 6.40458 7.47442 6.53758 7.61967 6.53758H8.6125C8.83767 6.53758 8.95783 6.83742 8.80908 7.02875L6.768 9.64908C6.60817 9.85383 6.30892 9.72608 6.30892 9.45308V7.42542C6.30892 7.26208 6.19225 7.12908 6.047 7.12908H5.05417C4.829 7.12908 4.70825 6.82925 4.85758 6.63792Z" stroke="var(--stroke-0, black)" stroke-width="0.875" stroke-linecap="round" stroke-linejoin="round"/>
</g>
</svg>
