<svg preserveAspectRatio="none" width="100%" height="100%" overflow="visible" style="display: block;" viewBox="0 0 14 14" fill="none" xmlns="http://www.w3.org/2000/svg">
<g id="ph:flower-lotus">
<path id="Vector" d="M13.4438 6.65164C13.388 6.55359 13.3132 6.46765 13.2239 6.39882C13.1345 6.33 13.0323 6.27967 12.9232 6.25078C12.5276 6.14894 12.1187 6.108 11.7108 6.12938C11.9295 5.04383 11.7655 4.18523 11.5981 3.67609C11.5314 3.46695 11.3892 3.29014 11.1992 3.18014C11.0093 3.07014 10.7851 3.03483 10.5705 3.08109C10.014 3.205 9.4849 3.42963 9.00922 3.74391C8.6608 3.03225 8.15356 2.41013 7.52664 1.92555C7.37471 1.8116 7.18992 1.75 7 1.75C6.81008 1.75 6.62529 1.8116 6.47336 1.92555C5.8463 2.40999 5.33904 3.03214 4.99078 3.74391C4.5151 3.42963 3.98595 3.205 3.42945 3.08109C3.21486 3.03483 2.99073 3.07014 2.80075 3.18014C2.61078 3.29014 2.46858 3.46695 2.40187 3.67609C2.23781 4.18523 2.07375 5.04328 2.28922 6.12938C1.88126 6.108 1.47242 6.14894 1.0768 6.25078C0.967743 6.27967 0.865537 6.33 0.776148 6.39882C0.686759 6.46765 0.611978 6.55359 0.556172 6.65164C0.497769 6.75208 0.459952 6.86314 0.444929 6.97835C0.429906 7.09356 0.437977 7.2106 0.468672 7.32266C0.654062 8.01008 1.22336 9.31766 2.94766 10.348C4.67195 11.3783 6.1868 11.375 7.00273 11.375C7.81867 11.375 9.33625 11.375 11.0496 10.348C12.7739 9.31766 13.3432 8.01008 13.5286 7.32266C13.5597 7.21078 13.5682 7.09383 13.5537 6.97863C13.5391 6.86342 13.5018 6.75227 13.4438 6.65164ZM3.23422 3.94516C3.23487 3.94244 3.23654 3.94008 3.23888 3.93856C3.24122 3.93703 3.24405 3.93646 3.2468 3.93695C3.75567 4.05186 4.23588 4.26899 4.65828 4.57516C4.46598 5.20438 4.37047 5.85918 4.375 6.51711C4.375 7.54195 4.58117 8.37648 4.8732 9.04805C4.45804 8.63252 4.09882 8.16464 3.80461 7.65625C2.81914 5.94016 3.02422 4.59375 3.23422 3.94516ZM3.39828 9.59711C1.93977 8.72648 1.46672 7.65898 1.3125 7.09297C1.7149 6.99387 2.13246 6.97216 2.54297 7.02898C2.68 7.3961 2.84737 7.75115 3.04336 8.09047C3.52455 8.92002 4.15493 9.65349 4.90273 10.2539C4.37395 10.1018 3.86741 9.88101 3.39609 9.59711H3.39828ZM7 10.4125C6.48977 10.033 5.25 8.86867 5.25 6.51711C5.25 4.19453 6.47391 3.02094 7 2.625C7.52609 3.02203 8.75 4.19563 8.75 6.5182C8.75 8.86867 7.51023 10.033 7 10.4125ZM9.34172 4.57516C9.76416 4.26918 10.2444 4.05224 10.7532 3.9375C10.756 3.937 10.7588 3.93758 10.7611 3.9391C10.7635 3.94063 10.7651 3.94299 10.7658 3.9457C10.9758 4.59375 11.1809 5.94016 10.1954 7.65625C9.90145 8.16532 9.54221 8.63377 9.1268 9.04969C9.41883 8.37922 9.625 7.54359 9.625 6.51875C9.6297 5.86027 9.53418 5.2049 9.34172 4.57516ZM12.6875 7.09406C12.536 7.65461 12.0641 8.7243 10.6045 9.59711C10.1331 9.88082 9.62657 10.1014 9.09781 10.2534C9.84561 9.65294 10.476 8.91948 10.9572 8.08992C11.1532 7.7506 11.3206 7.39555 11.4576 7.02844C11.868 6.9719 12.2854 6.99399 12.6875 7.09352V7.09406Z" fill="var(--fill-0, black)"/>
</g>
</svg>
