<svg preserveAspectRatio="none" width="100%" height="100%" overflow="visible" style="display: block;" viewBox="0 0 13 15" fill="none" xmlns="http://www.w3.org/2000/svg">
<g id="Group">
<path id="Vector" d="M9 13.999V11.499H11C11.2652 11.499 11.5196 11.3936 11.7071 11.2061C11.8946 11.0185 12 10.7642 12 10.499V6.49898C11.9998 5.52151 11.7391 4.56174 11.2448 3.71848C10.7505 2.87523 10.0403 2.17894 9.1875 1.70132C8.33466 1.22369 7.36995 0.981971 6.39266 1.00105C5.41538 1.02012 4.46083 1.29931 3.62728 1.80985C2.79374 2.3204 2.11132 3.04386 1.65026 3.90577C1.18921 4.76767 0.966186 5.73688 1.00415 6.71362C1.04212 7.69035 1.3397 8.63932 1.86626 9.46284C2.39282 10.2864 3.12934 10.9547 4 11.399V13.999" stroke="var(--stroke-0, black)" stroke-linecap="round" stroke-linejoin="round"/>
<path id="Vector_2" d="M5 3.81098C4.34285 4.19101 3.83946 4.78908 3.57716 5.50145C3.31486 6.21382 3.3102 6.99554 3.564 7.71098C3.684 8.04598 4.044 8.21398 4.388 8.12298C6.125 7.66298 7.893 6.41798 8.968 5.44798C9.253 5.19098 9.311 4.76098 9.058 4.47298C8.56157 3.91178 7.88648 3.53934 7.14699 3.4187C6.40751 3.29807 5.64905 3.43664 5 3.81098Z" stroke="var(--stroke-0, black)" stroke-linecap="round" stroke-linejoin="round"/>
</g>
</svg>
