<svg preserveAspectRatio="none" width="100%" height="100%" overflow="visible" style="display: block;" viewBox="0 0 16 16" fill="none" xmlns="http://www.w3.org/2000/svg">
<g id="Group">
<path id="Vector" opacity="0.987" fill-rule="evenodd" clip-rule="evenodd" d="M6.70416 0.0683438C7.51978 -0.0227813 8.00241 -0.0227813 8.87878 0.0683438C10.4301 0.297951 11.8682 1.01501 12.985 2.11584C12.2303 2.82925 11.4855 3.55307 10.7508 4.28709C9.34378 3.09459 7.77328 2.81934 6.03928 3.46134C4.76728 4.04634 3.88153 4.99434 3.38203 6.30534C2.56578 5.69765 1.76016 5.07581 0.965534 4.44009C0.91031 4.41103 0.847238 4.40038 0.785534 4.40972C2.04778 1.97597 4.02028 0.528469 6.70303 0.0672187" fill="var(--fill-0, #F44336)"/>
<path id="Vector_2" opacity="0.997" fill-rule="evenodd" clip-rule="evenodd" d="M0.783284 4.40972C0.847034 4.39997 0.907409 4.41009 0.964409 4.44009C1.75903 5.07581 2.56465 5.69765 3.38091 6.30534C3.25246 6.81616 3.17149 7.33775 3.13903 7.86347C3.16678 8.37197 3.24741 8.87109 3.38091 9.36084L0.844034 11.3802C-0.260716 9.07172 -0.280966 6.74822 0.783284 4.40972Z" fill="var(--fill-0, #FFC107)"/>
<path id="Vector_3" opacity="0.999" fill-rule="evenodd" clip-rule="evenodd" d="M12.8647 13.826C12.0748 13.1293 11.2478 12.4759 10.3874 11.8685C11.2499 11.2595 11.7734 10.424 11.9579 9.36197H7.73128V6.42684C10.1688 6.40659 12.6052 6.42722 15.0404 6.48872C15.5024 8.99747 14.9688 11.2595 13.4395 13.2747C13.2577 13.468 13.0651 13.652 12.8647 13.826Z" fill="var(--fill-0, #448AFF)"/>
<path id="Vector_4" opacity="0.993" fill-rule="evenodd" clip-rule="evenodd" d="M3.38091 9.36197C4.30341 11.6547 5.99466 12.725 8.45466 12.5727C9.14522 12.4928 9.8073 12.2515 10.3874 11.8685C11.2484 12.4775 12.0742 13.13 12.8647 13.826C11.6121 14.9515 10.0152 15.6193 8.33428 15.7205C7.95239 15.751 7.56867 15.751 7.18678 15.7205C4.32328 15.383 2.20903 13.9362 0.844034 11.3802L3.38091 9.36197Z" fill="var(--fill-0, #43A047)"/>
</g>
</svg>
