<?xml version="1.0" encoding="UTF-8" standalone="no"?><!DOCTYPE svg PUBLIC "-//W3C//DTD SVG 1.1//EN" "http://www.w3.org/Graphics/SVG/1.1/DTD/svg11.dtd"><svg width="100%" height="100%" viewBox="0 0 739 777" version="1.1" xmlns="http://www.w3.org/2000/svg" xmlns:xlink="http://www.w3.org/1999/xlink" xml:space="preserve" xmlns:serif="http://www.serif.com/" style="fill-rule:evenodd;clip-rule:evenodd;stroke-linecap:round;stroke-linejoin:round;stroke-miterlimit:1.5;"><g><path d="M311.571,5.38c-11.171,11.268 -16.886,20.009 -18.484,34.609c-18.57,17.326 -7.666,39.511 16.331,37.473" style="fill:none;stroke:#000;stroke-width:4.99px;"/><path d="M252.358,29.837l-8.697,21.518c5.143,19.69 8.611,28.586 4.299,38.516" style="fill:none;stroke:#000;stroke-width:4.99px;"/><path d="M243.661,51.355c-12.318,10.727 -20.812,10.469 -26.468,2.054" style="fill:none;stroke:#000;stroke-width:4.99px;"/><path d="M152.904,98.231l16.775,3.827c6.012,-23.042 17.006,-22.395 29.062,-16.442" style="fill:none;stroke:#000;stroke-width:4.99px;"/><path d="M169.679,102.058c-26.754,11.264 -28.585,22.858 -13.678,34.673" style="fill:none;stroke:#000;stroke-width:4.99px;"/><path d="M176.064,164.638c-6.315,17.944 -2.011,36.028 7.698,54.184c-20.536,0.149 -29.254,7.601 -33.884,17.581c-11.539,17.07 -16.03,34.104 -21.942,48.523c-11.828,28.849 6.909,64.656 12.421,59.289c-9.098,4.399 12.107,29.623 40.077,35.61" style="fill:none;stroke:#000;stroke-width:4.99px;"/><path d="M134.301,347.74c-26.003,12.973 -31.225,19.351 -28.304,26.295" style="fill:none;stroke:#000;stroke-width:4.99px;"/><path d="M127.936,284.926c-11.177,-15.288 -24.261,-25.987 -42.062,-25.332" style="fill:none;stroke:#000;stroke-width:4.99px;"/><path d="M149.878,236.403c-17.665,-15.623 -15.678,-38.1 2.074,-66.074" style="fill:none;stroke:#000;stroke-width:4.99px;"/><path d="M149.878,236.403c-3.77,-16.767 -31.017,-20.878 -53.835,-18.739" style="fill:none;stroke:#000;stroke-width:4.99px;"/><path d="M369.075,19.359c12.584,20.256 9.093,37.075 -10.281,50.499c23.596,38.94 25.946,62.111 5.106,68.415c13.526,19.527 16.989,32.996 1.8,45.694c15.382,36.727 18.718,94.766 -15.705,97.142c28.999,51.261 31.072,102.166 8.801,152.75c19.336,28.188 16.894,49.609 -1.884,51.654c31.481,46.161 24.762,95.601 1.828,134.631c20.926,20.793 26.85,35.268 7.872,40.966c5.988,8.861 9.341,18.561 -4.049,33.598c5.227,53.16 4.325,73.167 -24.937,68.176c-47.376,26.559 -83.221,2.613 -113.758,-31.548c-56.876,16.559 -97.532,-21.918 -108.476,-67.533c-50.465,-23.451 -65.738,-43.801 -52.678,-106.458c-7.909,-7.431 -11.468,-19.099 -6.388,-39.181c-42.176,-19.58 -44.825,-51.838 -19.326,-99.37c-23.515,-20.103 -20.219,-43.37 14.118,-75.529c-7.638,-18.53 3.53,-34.407 24.731,-52.555c-19.115,-39.449 -8.918,-82.708 32.892,-124.557c4.111,-44.314 17.438,-70.782 46.55,-66.689c2.12,-76.377 40.06,-85.754 92.245,-68.489c10.24,-11.898 23.017,-20.538 45.884,-16.22c23.832,-18.255 49.126,-15.636 75.655,4.604Z" style="fill:none;stroke:#000;stroke-width:4.99px;"/><path d="M356.912,485.513l-17.834,-14.657" style="fill:none;stroke:#000;stroke-width:4.99px;"/><path d="M62.714,557.345l33.598,4.05" style="fill:none;stroke:#000;stroke-width:4.99px;"/><path d="M152.737,657.085c-0.717,24.865 12.758,34.184 38.056,30.548" style="fill:none;stroke:#000;stroke-width:4.99px;"/><path d="M152.737,657.085c18.22,-6.264 26.975,-18.378 29.3,-34.467" style="fill:none;stroke:#000;stroke-width:4.99px;"/><path d="M152.737,657.085l-39.717,4.283" style="fill:none;stroke:#000;stroke-width:4.99px;"/><path d="M223.868,731.336l38.88,-31.936l28.633,16.002" style="fill:none;stroke:#000;stroke-width:4.99px;"/><path d="M248.021,711.497c-25.023,-14.035 -30.66,-35.848 -17.019,-65.397c-13.962,11.751 -26.89,17.761 -37.393,10.323" style="fill:none;stroke:#000;stroke-width:4.99px;"/><path d="M262.748,699.4l-4.378,-32.508" style="fill:none;stroke:#000;stroke-width:4.99px;"/><path d="M358.794,69.858l-26.228,-16.127" style="fill:none;stroke:#000;stroke-width:4.99px;"/><path d="M363.9,138.273c-36.265,-12.009 -67.987,-11.401 -94.977,2.352" style="fill:none;stroke:#000;stroke-width:4.99px;"/><path d="M240.576,102.994c-18.342,14.7 -25.526,30.79 -15.07,49.076c-15.989,3.079 -30.173,3.527 -39.623,-2.927" style="fill:none;stroke:#000;stroke-width:4.99px;"/><path d="M225.506,152.07c6.741,12.908 19.287,18.284 35.811,18.501" style="fill:none;stroke:#000;stroke-width:4.99px;"/><path d="M261.317,170.571l9.803,-14.293" style="fill:none;stroke:#000;stroke-width:4.99px;"/><path d="M261.317,170.571l-7.496,21.534" style="fill:none;stroke:#000;stroke-width:4.99px;"/><path d="M358.796,433.859c-19.946,22.339 -38.004,27.774 -54.407,24.52" style="fill:none;stroke:#000;stroke-width:4.99px;"/><path d="M353.168,404.94c-5.787,-8.731 -12.812,-13.908 -21.281,-14.936c-7.36,-0.894 -15.811,1.346 -25.487,7.108c0.275,-13.151 -7.031,-21.391 -26.151,-21.978c-27.432,2.479 -46.091,12.967 -45.015,41.47c1.078,22.03 4.948,37.34 12.646,43.433l-12.646,-43.433c-24.783,-1.281 -45.744,2.348 -57.917,17.263c-7.509,-20.666 -20.684,-28.581 -38.103,-26.944" style="fill:none;stroke:#000;stroke-width:4.99px;"/><path d="M280.249,375.134l-4.489,-24.096l18.294,-20.19l-18.294,20.19c-33.099,4.846 -49.388,-7.938 -40.237,-47.403c-14.045,-15.009 -13.808,-29.828 -5.421,-44.54c34.04,-22.479 24.224,-77.333 79.201,-81.882l17.945,6.246l-17.945,-6.246l11.163,-26.293" style="fill:none;stroke:#000;stroke-width:4.99px;"/><path d="M230.102,259.095c-25.832,7.003 -41.576,0.92 -47.843,-17.458" style="fill:none;stroke:#000;stroke-width:4.99px;"/><path d="M314.692,224.156l-15.891,20.222c13.918,17.98 15.809,36.895 -5.568,57.615c19.29,-4.553 35.248,0.465 47.875,15.054" style="fill:none;stroke:#000;stroke-width:4.99px;"/><path d="M298.801,244.378l-26.404,-2.752" style="fill:none;stroke:#000;stroke-width:4.99px;"/><path d="M48.636,349.241l26.309,9.962l20.951,-39.384l-20.951,39.384l18.655,43.513" style="fill:none;stroke:#000;stroke-width:4.99px;"/><path d="M33.344,415.14c10.657,13.697 31.834,14.511 49.155,9.062c15.426,34.435 35.103,52.766 60.649,48.875" style="fill:none;stroke:#000;stroke-width:4.99px;"/><path d="M364.193,662.28c-45.871,21.659 -75.559,11.992 -88.54,-30.013c-27.682,0.074 -39.015,-15.775 -24.489,-56.81c-83.732,45.556 -134.806,30.482 -139.687,-70.349c-19.811,-4.428 -32.4,-15.891 -39.225,-32.967c-6.972,-15.035 -3.298,-26.364 8.871,-34.737c-11.32,8.105 -13.488,20.012 -8.871,34.737l-26.198,-18.374" style="fill:none;stroke:#000;stroke-width:4.99px;"/><path d="M168.287,480.619c-17.909,56.961 -5.059,74.539 38.972,52.194c18.212,22.591 44.787,30.321 82.691,17.918c10.398,28.771 15.356,34.877 26.023,31.591c-8.838,1.858 -17.566,-4.599 -26.023,-31.591c6.037,1.584 15.623,-3.701 31.527,-21.217" style="fill:none;stroke:#000;stroke-width:4.99px;"/><path d="M324.103,512.723c-11.879,-9.444 -24.22,-16.729 -39.527,-10.137c-18.836,-6.471 -23.721,-16.926 -10.386,-32.587c-12.147,15.321 -9.638,26.456 10.386,32.587c-29.899,14.61 -51.698,5.947 -68.271,-17.727" style="fill:none;stroke:#000;stroke-width:4.99px;"/></g><g><path d="M444.657,5.38c11.171,11.268 16.886,20.009 18.484,34.609c18.569,17.326 7.666,39.511 -16.331,37.473" style="fill:none;stroke:#000;stroke-width:4.99px;"/><path d="M503.87,29.837l8.697,21.518c-5.143,19.69 -8.611,28.586 -4.299,38.516" style="fill:none;stroke:#000;stroke-width:4.99px;"/><path d="M512.567,51.355c12.317,10.727 20.812,10.469 26.467,2.054" style="fill:none;stroke:#000;stroke-width:4.99px;"/><path d="M603.324,98.231l-16.776,3.827c-6.011,-23.042 -17.005,-22.395 -29.061,-16.442" style="fill:none;stroke:#000;stroke-width:4.99px;"/><path d="M586.548,102.058c26.755,11.264 28.586,22.858 13.678,34.673" style="fill:none;stroke:#000;stroke-width:4.99px;"/><path d="M580.163,164.638c6.315,17.944 2.012,36.028 -7.697,54.184c20.536,0.149 29.254,7.601 33.884,17.581c11.538,17.07 16.03,34.104 21.942,48.523c11.827,28.849 -6.91,64.656 -12.421,59.289c9.098,4.399 -12.107,29.623 -40.078,35.61" style="fill:none;stroke:#000;stroke-width:4.99px;"/><path d="M621.927,347.74c26.002,12.973 31.225,19.351 28.304,26.295" style="fill:none;stroke:#000;stroke-width:4.99px;"/><path d="M628.292,284.926c11.177,-15.288 24.261,-25.987 42.061,-25.332" style="fill:none;stroke:#000;stroke-width:4.99px;"/><path d="M606.35,236.403c17.665,-15.623 15.677,-38.1 -2.075,-66.074" style="fill:none;stroke:#000;stroke-width:4.99px;"/><path d="M606.35,236.403c3.77,-16.767 31.016,-20.878 53.835,-18.739" style="fill:none;stroke:#000;stroke-width:4.99px;"/><path d="M387.153,19.359c-12.584,20.256 -9.094,37.075 10.281,50.499c-23.596,38.94 -25.946,62.111 -5.106,68.415c-13.526,19.527 -16.989,32.996 -1.8,45.694c-15.382,36.727 -18.718,94.766 15.704,97.142c-28.998,51.261 -31.071,102.166 -8.8,152.75c-19.337,28.188 -16.895,49.609 1.884,51.654c-31.481,46.161 -24.763,95.601 -1.828,134.631c-20.927,20.793 -26.85,35.268 -7.872,40.966c-5.988,8.861 -9.341,18.561 4.049,33.598c-5.227,53.16 -4.326,73.167 24.937,68.176c47.376,26.559 83.221,2.613 113.758,-31.548c56.876,16.559 97.531,-21.918 108.476,-67.533c50.465,-23.451 65.738,-43.801 52.678,-106.458c7.909,-7.431 11.467,-19.099 6.388,-39.181c42.176,-19.58 44.825,-51.838 19.326,-99.37c23.515,-20.103 20.219,-43.37 -14.119,-75.529c7.638,-18.53 -3.529,-34.407 -24.73,-52.555c19.115,-39.449 8.918,-82.708 -32.892,-124.557c-4.111,-44.314 -17.439,-70.782 -46.551,-66.689c-2.12,-76.377 -40.06,-85.754 -92.244,-68.489c-10.24,-11.898 -23.018,-20.538 -45.884,-16.22c-23.832,-18.255 -49.126,-15.636 -75.655,4.604Z" style="fill:none;stroke:#000;stroke-width:4.99px;"/><path d="M399.316,485.513l17.834,-14.657" style="fill:none;stroke:#000;stroke-width:4.99px;"/><path d="M693.514,557.345l-33.599,4.05" style="fill:none;stroke:#000;stroke-width:4.99px;"/><path d="M603.49,657.085c0.717,24.865 -12.757,34.184 -38.055,30.548" style="fill:none;stroke:#000;stroke-width:4.99px;"/><path d="M603.49,657.085c-18.219,-6.264 -26.975,-18.378 -29.299,-34.467" style="fill:none;stroke:#000;stroke-width:4.99px;"/><path d="M603.49,657.085l39.718,4.283" style="fill:none;stroke:#000;stroke-width:4.99px;"/><path d="M532.36,731.336l-38.88,-31.936l-28.633,16.002" style="fill:none;stroke:#000;stroke-width:4.99px;"/><path d="M508.207,711.497c25.022,-14.035 30.66,-35.848 17.019,-65.397c13.962,11.751 26.89,17.761 37.393,10.323" style="fill:none;stroke:#000;stroke-width:4.99px;"/><path d="M493.48,699.4l4.378,-32.508" style="fill:none;stroke:#000;stroke-width:4.99px;"/><path d="M397.434,69.858l26.228,-16.127" style="fill:none;stroke:#000;stroke-width:4.99px;"/><path d="M392.328,138.273c36.265,-12.009 67.987,-11.401 94.977,2.352" style="fill:none;stroke:#000;stroke-width:4.99px;"/><path d="M515.652,102.994c18.342,14.7 25.526,30.79 15.07,49.076c15.989,3.079 30.172,3.527 39.622,-2.927" style="fill:none;stroke:#000;stroke-width:4.99px;"/><path d="M530.722,152.07c-6.741,12.908 -19.287,18.284 -35.811,18.501" style="fill:none;stroke:#000;stroke-width:4.99px;"/><path d="M494.911,170.571l-9.803,-14.293" style="fill:none;stroke:#000;stroke-width:4.99px;"/><path d="M494.911,170.571l7.495,21.534" style="fill:none;stroke:#000;stroke-width:4.99px;"/><path d="M397.432,433.859c19.946,22.339 38.004,27.774 54.407,24.52" style="fill:none;stroke:#000;stroke-width:4.99px;"/><path d="M403.06,404.94c5.787,-8.731 12.812,-13.908 21.28,-14.936c7.361,-0.894 15.811,1.346 25.488,7.108c-0.276,-13.151 7.03,-21.391 26.15,-21.978c27.433,2.479 46.092,12.967 45.016,41.47c-1.078,22.03 -4.948,37.34 -12.647,43.433l12.647,-43.433c24.783,-1.281 45.743,2.348 57.916,17.263c7.51,-20.666 20.685,-28.581 38.104,-26.944" style="fill:none;stroke:#000;stroke-width:4.99px;"/><path d="M475.978,375.134l4.49,-24.096l-18.294,-20.19l18.294,20.19c33.098,4.846 49.388,-7.938 40.237,-47.403c14.045,-15.009 13.808,-29.828 5.421,-44.54c-34.04,-22.479 -24.224,-77.333 -79.201,-81.882l-17.945,6.246l17.945,-6.246l-11.164,-26.293" style="fill:none;stroke:#000;stroke-width:4.99px;"/><path d="M526.126,259.095c25.831,7.003 41.576,0.92 47.843,-17.458" style="fill:none;stroke:#000;stroke-width:4.99px;"/><path d="M441.536,224.156l15.89,20.222c-13.918,17.98 -15.808,36.895 5.568,57.615c-19.289,-4.553 -35.247,0.465 -47.874,15.054" style="fill:none;stroke:#000;stroke-width:4.99px;"/><path d="M457.426,244.378l26.405,-2.752" style="fill:none;stroke:#000;stroke-width:4.99px;"/><path d="M707.592,349.241l-26.309,9.962l-20.951,-39.384l20.951,39.384l-18.655,43.513" style="fill:none;stroke:#000;stroke-width:4.99px;"/><path d="M722.884,415.14c-10.657,13.697 -31.834,14.511 -49.156,9.062c-15.425,34.435 -35.103,52.766 -60.648,48.875" style="fill:none;stroke:#000;stroke-width:4.99px;"/><path d="M392.035,662.28c45.871,21.659 75.558,11.992 88.54,-30.013c27.682,0.074 39.015,-15.775 24.489,-56.81c83.732,45.556 134.805,30.482 139.686,-70.349c19.812,-4.428 32.401,-15.891 39.226,-32.967c6.972,-15.035 3.298,-26.364 -8.872,-34.737c11.32,8.105 13.489,20.012 8.872,34.737l26.198,-18.374" style="fill:none;stroke:#000;stroke-width:4.99px;"/><path d="M587.94,480.619c17.91,56.961 5.06,74.539 -38.971,52.194c-18.212,22.591 -44.787,30.321 -82.691,17.918c-10.398,28.771 -15.356,34.877 -26.023,31.591c8.838,1.858 17.566,-4.599 26.023,-31.591c-6.037,1.584 -15.623,-3.701 -31.528,-21.217" style="fill:none;stroke:#000;stroke-width:4.99px;"/><path d="M432.125,512.723c11.879,-9.444 24.22,-16.729 39.527,-10.137c18.836,-6.471 23.72,-16.926 10.386,-32.587c12.147,15.321 9.638,26.456 -10.386,32.587c29.899,14.61 51.697,5.947 68.271,-17.727" style="fill:none;stroke:#000;stroke-width:4.99px;"/></g><path d="M175.773,510.64l-0.04,-0.172l0.077,-0.041c6.893,-3.755 13.536,-6.237 20.811,-8.86l0.208,0.478c-6.961,2.188 -14.064,5.299 -21.011,8.79l-0.045,-0.195Z" style="fill:#0f7b01;"/><path d="M175.818,510.835c-0.029,0.014 -0.057,0.028 -0.085,0.042c0.013,-0.079 0.026,-0.158 0.04,-0.237c0.012,-0.071 0.024,-0.142 0.037,-0.213c6.893,-3.755 13.536,-6.237 20.811,-8.86c0.069,0.159 0.138,0.318 0.208,0.478c-6.961,2.188 -14.064,5.299 -21.011,8.79Z" style="fill:#48c600;"/><path d="M285.979,510.08l-285.979,240.754l0,-108.202c54.743,-32.75 115.052,-68.619 163.505,-101.634c17.742,-12.09 33.894,-23.796 47.602,-34.827c27.084,-21.796 44.622,-40.954 46.016,-55.21l-0.399,-0.817c-20.677,-12.463 -46.475,-10.747 -73.308,-2.312c-0.141,-0.325 -0.283,-0.65 -0.424,-0.975c-14.848,5.354 -28.406,10.42 -42.474,18.082c3.157,-17.891 14.222,-41.235 26.293,-58.935c31.105,-22.53 73.194,-17.513 97.504,5.667c24.209,23.082 27.031,69.264 21.664,98.409Z" style="fill:#48c600;"/><path d="M163.505,540.998c-8.743,-22.51 -16.533,-47.447 -22.971,-75.226c14.18,-7.125 28.676,-13.474 42.882,-17.94c8.69,19.972 17.916,39.446 27.691,58.339c-13.708,11.031 -29.86,22.737 -47.602,34.827Zm72.961,10.765c46.835,78.313 104.403,144.128 173.781,190.351c-26.936,14.095 -53.872,22.495 -80.808,21.063c-32.716,-39.436 -94.276,-81.425 -142.007,-170.134l49.034,-41.28Z" style="fill:#0f7b01;"/></svg>