<svg width="16" height="15" viewBox="0 0 16 15" fill="none" xmlns="http://www.w3.org/2000/svg">
<path fill-rule="evenodd" clip-rule="evenodd" d="M1.5 3C1.5 2.60218 1.65804 2.22064 1.93934 1.93934C2.22064 1.65804 2.60218 1.5 3 1.5H13C13.3978 1.5 13.7794 1.65804 14.0607 1.93934C14.342 2.22064 14.5 2.60218 14.5 3V6.25C14.5 6.44891 14.579 6.63968 14.7197 6.78033C14.8603 6.92098 15.0511 7 15.25 7C15.4489 7 15.6397 6.92098 15.7803 6.78033C15.921 6.63968 16 6.44891 16 6.25V3C16 2.20435 15.6839 1.44129 15.1213 0.87868C14.5587 0.31607 13.7956 0 13 0H3C2.20435 0 1.44129 0.31607 0.87868 0.87868C0.31607 1.44129 0 2.20435 0 3L0 14.25C0.000130387 14.3982 0.0441878 14.5431 0.126608 14.6663C0.209028 14.7895 0.326113 14.8856 0.463076 14.9423C0.60004 14.999 0.750737 15.0138 0.896136 14.985C1.04154 14.9561 1.17511 14.8848 1.28 14.78L4.063 12H8.25C8.44891 12 8.63968 11.921 8.78033 11.7803C8.92098 11.6397 9 11.4489 9 11.25C9 11.0511 8.92098 10.8603 8.78033 10.7197C8.63968 10.579 8.44891 10.5 8.25 10.5H3.443L3.223 10.72L1.5 12.44V3ZM13 13C12.8011 13 12.6103 12.921 12.4697 12.7803C12.329 12.6397 12.25 12.4489 12.25 12.25V10.75H10.75C10.5511 10.75 10.3603 10.671 10.2197 10.5303C10.079 10.3897 10 10.1989 10 10C10 9.80109 10.079 9.61032 10.2197 9.46967C10.3603 9.32902 10.5511 9.25 10.75 9.25H12.25V7.75C12.25 7.55109 12.329 7.36032 12.4697 7.21967C12.6103 7.07902 12.8011 7 13 7C13.1989 7 13.3897 7.07902 13.5303 7.21967C13.671 7.36032 13.75 7.55109 13.75 7.75V9.25H15.25C15.4489 9.25 15.6397 9.32902 15.7803 9.46967C15.921 9.61032 16 9.80109 16 10C16 10.1989 15.921 10.3897 15.7803 10.5303C15.6397 10.671 15.4489 10.75 15.25 10.75H13.75V12.25C13.75 12.4489 13.671 12.6397 13.5303 12.7803C13.3897 12.921 13.1989 13 13 13Z" fill="black"/>
</svg>
